<mxfile host="app.diagrams.net" agent="Mozilla/5.0 (Windows NT 10.0; Win64; x64; rv:109.0) Gecko/20100101 Firefox/127.0" version="24.7.12">
  <diagram name="Page-1" id="HVJjJYL0hNNSH8J0Meae">
    <mxGraphModel dx="1432" dy="777" grid="1" gridSize="10" guides="1" tooltips="1" connect="1" arrows="1" fold="1" page="1" pageScale="1" pageWidth="850" pageHeight="1100" math="0" shadow="0">
      <root>
        <mxCell id="0" />
        <mxCell id="1" parent="0" />
        <mxCell id="e-FtNeugcCT7f2MW7TpE-1" value="NOTE: DELETE LATER&lt;br&gt;* Doctors can set up, modify, and delete profile of the users to help them monitor relevant information about the Patient&lt;br&gt;* Doctors can also set up monitoring function, that will notify them in case of users having &quot;&lt;span&gt;&lt;span&gt;abnormal result&lt;/span&gt;&lt;/span&gt;&quot; " style="shape=note;whiteSpace=wrap;html=1;backgroundOutline=1;darkOpacity=0.05;" vertex="1" parent="1">
          <mxGeometry x="600" y="340" width="210" height="355" as="geometry" />
        </mxCell>
        <mxCell id="e-FtNeugcCT7f2MW7TpE-2" value="modify Patients profile" style="ellipse;whiteSpace=wrap;html=1;" vertex="1" parent="1">
          <mxGeometry x="312.5" y="503" width="100" height="50" as="geometry" />
        </mxCell>
        <mxCell id="e-FtNeugcCT7f2MW7TpE-3" value="set up monitoring function" style="ellipse;whiteSpace=wrap;html=1;" vertex="1" parent="1">
          <mxGeometry x="227.5" y="658" width="100" height="50" as="geometry" />
        </mxCell>
        <mxCell id="e-FtNeugcCT7f2MW7TpE-4" value="set up Patients profile" style="ellipse;whiteSpace=wrap;html=1;" vertex="1" parent="1">
          <mxGeometry x="288.75" y="393" width="100" height="50" as="geometry" />
        </mxCell>
        <mxCell id="e-FtNeugcCT7f2MW7TpE-5" value="delete Patients profile" style="ellipse;whiteSpace=wrap;html=1;" vertex="1" parent="1">
          <mxGeometry x="302.5" y="588" width="100" height="50" as="geometry" />
        </mxCell>
        <mxCell id="e-FtNeugcCT7f2MW7TpE-7" value="email notification" style="ellipse;whiteSpace=wrap;html=1;" vertex="1" parent="1">
          <mxGeometry x="412.5" y="700" width="80" height="52" as="geometry" />
        </mxCell>
        <mxCell id="e-FtNeugcCT7f2MW7TpE-8" value="{abstract}&lt;br&gt;Manage Patients profile" style="ellipse;whiteSpace=wrap;html=1;" vertex="1" parent="1">
          <mxGeometry x="98.75" y="498" width="110" height="70" as="geometry" />
        </mxCell>
        <mxCell id="e-FtNeugcCT7f2MW7TpE-9" value="" style="endArrow=open;html=1;rounded=0;exitX=1;exitY=0;exitDx=0;exitDy=0;entryX=-0.01;entryY=0.64;entryDx=0;entryDy=0;entryPerimeter=0;endFill=0;" edge="1" parent="1" source="e-FtNeugcCT7f2MW7TpE-8" target="e-FtNeugcCT7f2MW7TpE-4">
          <mxGeometry width="50" height="50" relative="1" as="geometry">
            <mxPoint x="318.75" y="693" as="sourcePoint" />
            <mxPoint x="368.75" y="643" as="targetPoint" />
          </mxGeometry>
        </mxCell>
        <mxCell id="e-FtNeugcCT7f2MW7TpE-10" value="&amp;lt;include&amp;gt;" style="edgeLabel;html=1;align=center;verticalAlign=middle;resizable=0;points=[];" vertex="1" connectable="0" parent="e-FtNeugcCT7f2MW7TpE-9">
          <mxGeometry x="-0.1257" y="-5" relative="1" as="geometry">
            <mxPoint y="-8" as="offset" />
          </mxGeometry>
        </mxCell>
        <mxCell id="e-FtNeugcCT7f2MW7TpE-11" value="" style="endArrow=open;html=1;rounded=0;exitX=1;exitY=1;exitDx=0;exitDy=0;entryX=0;entryY=0.5;entryDx=0;entryDy=0;endFill=0;" edge="1" parent="1" source="e-FtNeugcCT7f2MW7TpE-8" target="e-FtNeugcCT7f2MW7TpE-5">
          <mxGeometry width="50" height="50" relative="1" as="geometry">
            <mxPoint x="262.75" y="743" as="sourcePoint" />
            <mxPoint x="337.75" y="705" as="targetPoint" />
          </mxGeometry>
        </mxCell>
        <mxCell id="e-FtNeugcCT7f2MW7TpE-12" value="&amp;lt;include&amp;gt;" style="edgeLabel;html=1;align=center;verticalAlign=middle;resizable=0;points=[];" vertex="1" connectable="0" parent="e-FtNeugcCT7f2MW7TpE-11">
          <mxGeometry x="-0.1257" y="-5" relative="1" as="geometry">
            <mxPoint y="-8" as="offset" />
          </mxGeometry>
        </mxCell>
        <mxCell id="e-FtNeugcCT7f2MW7TpE-13" value="" style="endArrow=open;html=1;rounded=0;entryX=0;entryY=0.5;entryDx=0;entryDy=0;endFill=0;exitX=1;exitY=0.5;exitDx=0;exitDy=0;" edge="1" parent="1" source="e-FtNeugcCT7f2MW7TpE-8" target="e-FtNeugcCT7f2MW7TpE-2">
          <mxGeometry width="50" height="50" relative="1" as="geometry">
            <mxPoint x="312.75" y="723" as="sourcePoint" />
            <mxPoint x="387.75" y="675" as="targetPoint" />
            <Array as="points">
              <mxPoint x="258.75" y="533" />
            </Array>
          </mxGeometry>
        </mxCell>
        <mxCell id="e-FtNeugcCT7f2MW7TpE-14" value="&amp;lt;include&amp;gt;" style="edgeLabel;html=1;align=center;verticalAlign=middle;resizable=0;points=[];" vertex="1" connectable="0" parent="e-FtNeugcCT7f2MW7TpE-13">
          <mxGeometry x="-0.1257" y="-5" relative="1" as="geometry">
            <mxPoint y="-8" as="offset" />
          </mxGeometry>
        </mxCell>
        <mxCell id="e-FtNeugcCT7f2MW7TpE-16" value="" style="endArrow=none;html=1;rounded=0;exitX=0.925;exitY=0.84;exitDx=0;exitDy=0;entryX=0;entryY=0.5;entryDx=0;entryDy=0;strokeColor=default;startArrow=open;startFill=0;exitPerimeter=0;" edge="1" parent="1" source="e-FtNeugcCT7f2MW7TpE-3" target="e-FtNeugcCT7f2MW7TpE-7">
          <mxGeometry width="50" height="50" relative="1" as="geometry">
            <mxPoint x="448.75" y="869" as="sourcePoint" />
            <mxPoint x="509.75" y="913" as="targetPoint" />
          </mxGeometry>
        </mxCell>
        <mxCell id="e-FtNeugcCT7f2MW7TpE-17" value="&amp;lt;extend&amp;gt;" style="edgeLabel;html=1;align=center;verticalAlign=middle;resizable=0;points=[];" vertex="1" connectable="0" parent="e-FtNeugcCT7f2MW7TpE-16">
          <mxGeometry x="-0.209" y="-3" relative="1" as="geometry">
            <mxPoint x="7" y="5" as="offset" />
          </mxGeometry>
        </mxCell>
        <mxCell id="e-FtNeugcCT7f2MW7TpE-20" value="Doctors" style="shape=umlActor;verticalLabelPosition=bottom;verticalAlign=top;html=1;outlineConnect=0;fillColor=#dae8fc;strokeColor=#6c8ebf;" vertex="1" parent="1">
          <mxGeometry x="30" y="498" width="30" height="60" as="geometry" />
        </mxCell>
        <mxCell id="e-FtNeugcCT7f2MW7TpE-25" value="" style="endArrow=none;html=1;rounded=0;exitX=0.5;exitY=0.5;exitDx=0;exitDy=0;exitPerimeter=0;entryX=0;entryY=0.5;entryDx=0;entryDy=0;" edge="1" parent="1" source="e-FtNeugcCT7f2MW7TpE-20" target="e-FtNeugcCT7f2MW7TpE-8">
          <mxGeometry width="50" height="50" relative="1" as="geometry">
            <mxPoint x="400" y="540" as="sourcePoint" />
            <mxPoint x="450" y="490" as="targetPoint" />
          </mxGeometry>
        </mxCell>
        <mxCell id="e-FtNeugcCT7f2MW7TpE-26" value="Patient Profile" style="swimlane;whiteSpace=wrap;html=1;" vertex="1" parent="1">
          <mxGeometry x="70" y="350" width="440" height="425" as="geometry" />
        </mxCell>
        <mxCell id="e-FtNeugcCT7f2MW7TpE-27" value="" style="endArrow=open;html=1;rounded=0;exitX=0.5;exitY=1;exitDx=0;exitDy=0;entryX=0;entryY=0;entryDx=0;entryDy=0;endFill=0;" edge="1" parent="1" source="e-FtNeugcCT7f2MW7TpE-8" target="e-FtNeugcCT7f2MW7TpE-3">
          <mxGeometry width="50" height="50" relative="1" as="geometry">
            <mxPoint x="202.75" y="568" as="sourcePoint" />
            <mxPoint x="312.75" y="623" as="targetPoint" />
          </mxGeometry>
        </mxCell>
        <mxCell id="e-FtNeugcCT7f2MW7TpE-28" value="&amp;lt;include&amp;gt;" style="edgeLabel;html=1;align=center;verticalAlign=middle;resizable=0;points=[];" vertex="1" connectable="0" parent="e-FtNeugcCT7f2MW7TpE-27">
          <mxGeometry x="-0.1257" y="-5" relative="1" as="geometry">
            <mxPoint y="-8" as="offset" />
          </mxGeometry>
        </mxCell>
        <mxCell id="e-FtNeugcCT7f2MW7TpE-29" value="System" style="shape=umlActor;verticalLabelPosition=bottom;verticalAlign=top;html=1;outlineConnect=0;fillColor=#dae8fc;strokeColor=#6c8ebf;" vertex="1" parent="1">
          <mxGeometry x="530" y="508" width="30" height="60" as="geometry" />
        </mxCell>
        <mxCell id="e-FtNeugcCT7f2MW7TpE-30" value="" style="endArrow=none;html=1;rounded=0;entryX=0.5;entryY=0.5;entryDx=0;entryDy=0;entryPerimeter=0;exitX=1;exitY=0;exitDx=0;exitDy=0;" edge="1" parent="1" source="e-FtNeugcCT7f2MW7TpE-7" target="e-FtNeugcCT7f2MW7TpE-29">
          <mxGeometry width="50" height="50" relative="1" as="geometry">
            <mxPoint x="400" y="610" as="sourcePoint" />
            <mxPoint x="450" y="560" as="targetPoint" />
          </mxGeometry>
        </mxCell>
      </root>
    </mxGraphModel>
  </diagram>
</mxfile>
